<svg width="64" height="66" viewBox="0 0 64 66" fill="none" xmlns="http://www.w3.org/2000/svg">
<path fill-rule="evenodd" clip-rule="evenodd" d="M57.8759 0C57.0438 0 56.3733 0.616506 56.3733 1.38203V9.71661C56.3733 10.4821 57.0438 11.0971 57.8759 11.0971H58.982L58.8776 52.6371C58.8703 55.4765 56.8762 58.1856 54.0652 60.1938C51.2543 62.2021 47.6744 63.442 44.9814 63.442H43.2143C35.4026 63.442 29.3187 58.5144 29.3187 52.6399V50.6694H31.8998C32.5046 50.6694 32.9907 50.1401 32.9907 49.4825V46.5009C32.9907 45.8432 32.5046 45.3139 31.8998 45.3139H25.3134C24.7086 45.3139 24.221 45.8432 24.221 46.5009V49.4825C24.221 50.1401 24.7086 50.6694 25.3134 50.6694H27.5623V52.6399C27.5623 59.7072 34.6575 65.1982 43.2143 65.1982H44.9814C48.1904 65.1982 51.9898 63.8358 55.0861 61.6236C58.1824 59.4115 60.6247 56.2799 60.6336 52.6412L60.738 11.0975H61.6491C62.4812 11.0975 63.1501 10.4825 63.1501 9.71699V1.38241C63.1501 0.61692 62.4807 0.000376402 61.6491 0.000376402H57.8756L57.8759 0ZM13.6939 15.8389C12.4981 15.8389 11.5357 16.4662 11.5357 17.2454V18.4544H7.23928C4.20624 18.4544 1.91817 21.3016 1.73287 24.7076H0.758623C0.338632 24.7076 0 25.1933 0 25.7956V32.3561C0 32.9584 0.339121 33.443 0.758623 33.443H1.78089C2.28714 37.7066 5.94743 41.7991 10.9677 41.8036L19.0773 41.8105L19.0768 41.8095C19.094 41.8095 19.1112 41.8095 19.1278 41.8085C19.1278 41.8085 19.5904 41.7815 20.1555 41.7017C20.7205 41.6213 21.3762 41.5213 21.9736 41.2106C22.569 40.9009 22.9983 40.4319 23.3458 40.0345C23.6934 39.637 23.9373 39.2905 23.9373 39.2905C23.9378 39.29 23.9383 39.2896 23.9388 39.2891L28.5807 32.6614L33.3902 39.4606C33.3922 39.4625 33.3941 39.465 33.3956 39.4674C33.3956 39.4674 33.621 39.7796 33.943 40.1383C34.265 40.4971 34.6659 40.9219 35.222 41.2101C35.7748 41.4963 36.3786 41.6056 36.9015 41.6943C37.4244 41.783 37.8522 41.8217 37.8522 41.8217L37.8527 41.8222C37.8792 41.8246 37.9057 41.8261 37.9321 41.8261L46.2392 41.833C49.1139 41.8354 51.4839 40.498 53.0879 38.674C54.4386 37.1386 55.2756 35.2651 55.5029 33.4421H56.4331C56.8531 33.4421 57.1917 32.9579 57.1917 32.3551V25.7946C57.1917 25.1923 56.8526 24.7067 56.4331 24.7067H55.5167C55.3182 21.3036 53.0458 18.4534 50.0113 18.4534H45.7521V17.2444C45.7521 16.4652 44.7892 15.8379 43.5939 15.8379H13.6938L13.6939 15.8389ZM7.23928 20.2108H13.3416C13.4568 20.2231 13.5734 20.2343 13.6945 20.2343H43.5945C43.7151 20.2343 43.8317 20.2235 43.9474 20.2108H50.0124C51.9967 20.2108 53.7664 22.3039 53.7805 25.1561L53.7835 25.7157C53.782 25.7436 53.7727 25.7672 53.7727 25.7951V32.3556C53.7727 32.4472 53.7938 32.5286 53.8085 32.6134C53.7639 34.1893 53.0474 36.0624 51.7708 37.5136C50.4457 39.0201 48.5781 40.079 46.2424 40.0767L37.9932 40.0698C37.9755 40.0683 37.6369 40.0374 37.1973 39.963C36.7464 39.8865 36.1981 39.7375 36.0324 39.6513C35.8702 39.567 35.5105 39.2524 35.2532 38.9652C34.9954 38.678 34.821 38.4384 34.821 38.4384L29.2965 30.6282H29.2945C29.1299 30.3949 28.8613 30.2562 28.5756 30.2567C28.2899 30.2572 28.0218 30.3969 27.8581 30.6311L22.4998 38.2825C22.4988 38.2839 22.3077 38.5559 22.0249 38.8794C21.7416 39.2033 21.3452 39.5571 21.1633 39.6517C20.9835 39.7453 20.3944 39.8943 19.9093 39.9634C19.4315 40.0315 19.0556 40.0531 19.0433 40.0541L10.9696 40.0472C6.60306 40.0438 3.47204 36.0463 3.47204 32.4399V25.1521C3.47204 22.3049 5.25591 20.2108 7.24013 20.2108L7.23928 20.2108Z" fill="white"/>
</svg>
